<svg width="217" height="150" viewBox="0 0 217 150" fill="none" xmlns="http://www.w3.org/2000/svg">
<mask id="mask0_5_129" style="mask-type:alpha" maskUnits="userSpaceOnUse" x="0" y="0" width="217" height="150">
<path d="M86.9826 1.27659C98.33 0.425529 103.933 0 103.791 0C105.068 0 105.919 0.496385 106.344 1.48936C106.486 2.05681 101.38 23.1915 91.0251 64.8936C80.3868 107.163 75.0677 128.723 75.0677 129.574C74.5002 132.553 74.5713 135.036 75.2805 137.021C76.1315 139.291 77.7628 140.284 80.1741 140C81.8762 139.858 83.6492 138.511 85.4932 135.957C87.479 132.979 89.5358 127.447 91.6634 119.362C92.2309 116.95 92.8692 115.603 93.5783 115.319C94.0039 115.177 95.3513 115.106 97.6209 115.106C100.316 115.106 101.805 115.248 102.089 115.532C102.94 116.099 102.94 117.73 102.089 120.426C98.4011 133.617 93.6492 142.34 87.8336 146.596C85.5641 148.298 83.2947 149.362 81.0251 149.787C78.0464 150.213 74.8549 150 71.4507 149.149C65.0677 147.73 60.5288 144.398 57.8336 139.149L57.1954 137.66L55.9188 138.723C44.713 148.368 33.6492 151.772 22.7273 148.936C19.6066 148.085 16.699 146.809 14.0039 145.106C5.91875 139.433 1.30875 130.993 0.17407 119.787C-0.251462 114.681 0.103219 109.149 1.2379 103.191C3.36556 93.9717 7.1245 85.6738 12.5145 78.2979C21.1671 66.0994 31.9471 58.2979 44.8549 54.8936C47.2662 54.1845 50.2449 53.8298 53.7911 53.8298C56.4862 53.8298 58.472 53.9717 59.7485 54.2553C63.5783 55.2483 67.0534 57.3049 70.1741 60.4255L71.8762 62.1277L72.089 61.2766C72.089 61.5602 73.862 54.61 77.4081 40.4255C81.2379 25.1064 82.8692 17.0213 82.3017 16.1702C81.4507 14.8936 77.8337 14.2553 71.4507 14.2553C68.8975 14.2553 67.4081 13.7589 66.9826 12.766C66.8407 12.0568 67.1245 10.4255 67.8337 7.87234C68.4011 5.17724 68.9683 3.54617 69.5358 2.97873C69.9613 2.55319 70.3868 2.34042 70.8124 2.34042C72.089 2.34042 77.479 1.98574 86.9826 1.27659ZM56.7698 64.2553C53.933 63.5462 51.5926 63.4043 49.7485 63.8298C45.3513 64.6809 41.096 67.1632 36.9826 71.2766C32.8692 75.6738 29.2522 83.4751 26.1315 94.6809C25.4224 97.234 24.6422 100.213 23.7911 103.617C21.3798 113.262 20.1741 120.426 20.1741 125.106C20.1741 129.504 21.096 132.979 22.94 135.532C26.3443 140.071 31.4507 141.206 38.2592 138.936C44.0747 136.95 49.6777 132.482 55.0677 125.532L56.5571 123.617L67.6209 78.9362L67.1954 77.234C65.2096 70.2836 61.7343 65.9574 56.7698 64.2553Z" fill="black"/>
<path d="M197.521 1.27659C208.868 0.425529 214.472 0 214.329 0C215.606 0 216.457 0.496385 216.883 1.48936C217.025 2.05681 211.919 23.1915 201.563 64.8936C190.925 107.163 185.606 128.723 185.606 129.574C185.038 132.553 185.11 135.036 185.819 137.021C186.67 139.291 188.302 140.284 190.712 140C192.415 139.858 194.187 138.511 196.032 135.957C198.017 132.979 200.074 127.447 202.202 119.362C202.77 116.95 203.408 115.603 204.117 115.319C204.542 115.177 205.889 115.106 208.159 115.106C210.855 115.106 212.344 115.248 212.627 115.532C213.478 116.099 213.478 117.73 212.627 120.426C208.94 133.617 204.187 142.34 198.372 146.596C196.102 148.298 193.834 149.362 191.563 149.787C188.585 150.213 185.393 150 181.989 149.149C175.606 147.73 171.068 144.398 168.372 139.149L167.734 137.66L166.457 138.723C155.252 148.368 144.188 151.772 133.266 148.936C130.145 148.085 127.238 146.809 124.542 145.106C116.457 139.433 111.847 130.993 110.713 119.787C110.287 114.681 110.642 109.149 111.776 103.191C113.904 93.9717 117.663 85.6738 123.053 78.2979C131.706 66.0994 142.486 58.2979 155.393 54.8936C157.805 54.1845 160.784 53.8298 164.33 53.8298C167.025 53.8298 169.01 53.9717 170.287 54.2553C174.117 55.2483 177.591 57.3049 180.712 60.4255L182.415 62.1277L182.627 61.2766C182.627 61.5602 184.4 54.61 187.946 40.4255C191.776 25.1064 193.408 17.0213 192.84 16.1702C191.989 14.8936 188.372 14.2553 181.989 14.2553C179.436 14.2553 177.946 13.7589 177.521 12.766C177.378 12.0568 177.663 10.4255 178.372 7.87234C178.94 5.17724 179.506 3.54617 180.074 2.97873C180.5 2.55319 180.925 2.34042 181.351 2.34042C182.627 2.34042 188.017 1.98574 197.521 1.27659ZM167.308 64.2553C164.472 63.5462 162.131 63.4043 160.287 63.8298C155.89 64.6809 151.635 67.1632 147.521 71.2766C143.408 75.6738 139.791 83.4751 136.67 94.6809C135.961 97.234 135.181 100.213 134.33 103.617C131.918 113.262 130.713 120.426 130.713 125.106C130.713 129.504 131.635 132.979 133.479 135.532C136.883 140.071 141.989 141.206 148.798 138.936C154.613 136.95 160.216 132.482 165.606 125.532L167.096 123.617L178.159 78.9362L177.734 77.234C175.749 70.2836 172.272 65.9574 167.308 64.2553Z" fill="black"/>
</mask>
<g mask="url(#mask0_5_129)">
<path d="M-48.8965 141.718H230.564V145.905H-48.8965V141.718Z" fill="black"/>
<path d="M-48.8965 131.952H230.564V136.138H-48.8965V131.952Z" fill="black"/>
<path d="M-48.8965 122.186H230.564V126.372H-48.8965V122.186Z" fill="black"/>
<path d="M-50.2867 112.42H229.175V116.605H-50.2867V112.42Z" fill="black"/>
<path d="M-50.2867 102.653H229.175V106.839H-50.2867V102.653Z" fill="black"/>
<path d="M-50.2867 92.8871H229.175V97.0726H-50.2867V92.8871Z" fill="black"/>
<path d="M-50.2867 83.1206H229.175V87.3061H-50.2867V83.1206Z" fill="black"/>
<path d="M-50.2867 73.3542H229.175V77.54H-50.2867V73.3542Z" fill="black"/>
<path d="M-50.2867 63.5881H229.175V67.7737H-50.2867V63.5881Z" fill="black"/>
<path d="M-48.8965 53.8218H230.564V58.0073H-48.8965V53.8218Z" fill="black"/>
<path d="M-48.8965 44.0555H230.564V48.2411H-48.8965V44.0555Z" fill="black"/>
<path d="M-48.8965 34.2892H230.564V38.4747H-48.8965V34.2892Z" fill="black"/>
<path d="M-48.8965 24.5228H230.564V28.7084H-48.8965V24.5228Z" fill="black"/>
<path d="M-48.8965 14.7567H230.564V18.9422H-48.8965V14.7567Z" fill="black"/>
<path d="M-48.8965 4.99023H230.564V9.17576H-48.8965V4.99023Z" fill="black"/>
</g>
</svg>
