<svg width="142" height="142" viewBox="0 0 142 142" fill="none" xmlns="http://www.w3.org/2000/svg">
<rect width="142" height="142" fill="white"/>
<mask id="mask0_66_20" style="mask-type:alpha" maskUnits="userSpaceOnUse" x="19" y="33" width="103" height="71">
<path d="M60.7 33.6C66.0333 33.2 68.6667 33 68.6 33C69.2 33 69.6 33.2333 69.8 33.7C69.8667 33.9667 67.4667 43.9 62.6 63.5C57.6 83.3667 55.1 93.5 55.1 93.9C54.8333 95.3 54.8667 96.4667 55.2 97.4C55.6 98.4667 56.3667 98.9333 57.5 98.8C58.3 98.7333 59.1333 98.1 60 96.9C60.9333 95.5 61.9 92.9 62.9 89.1C63.1667 87.9667 63.4667 87.3333 63.8 87.2C64 87.1333 64.6333 87.1 65.7 87.1C66.9667 87.1 67.6667 87.1667 67.8 87.3C68.2 87.5667 68.2 88.3333 67.8 89.6C66.0667 95.8 63.8333 99.9 61.1 101.9C60.0333 102.7 58.9667 103.2 57.9 103.4C56.5 103.6 55 103.5 53.4 103.1C50.4 102.433 48.2667 100.867 47 98.4L46.7 97.7L46.1 98.2C40.8333 102.733 35.6333 104.333 30.5 103C29.0333 102.6 27.6667 102 26.4 101.2C22.6 98.5333 20.4333 94.5667 19.9 89.3C19.7 86.9 19.8667 84.3 20.4 81.5C21.4 77.1667 23.1667 73.2667 25.7 69.8C29.7667 64.0667 34.8333 60.4 40.9 58.8C42.0333 58.4667 43.4333 58.3 45.1 58.3C46.3667 58.3 47.3 58.3667 47.9 58.5C49.7 58.9667 51.3333 59.9333 52.8 61.4L53.6 62.2L53.7 61.8C53.7 61.9333 54.5333 58.6667 56.2 52C58 44.8 58.7667 41 58.5 40.6C58.1 40 56.4 39.7 53.4 39.7C52.2 39.7 51.5 39.4667 51.3 39C51.2333 38.6667 51.3667 37.9 51.7 36.7C51.9667 35.4333 52.2333 34.6667 52.5 34.4C52.7 34.2 52.9 34.1 53.1 34.1C53.7 34.1 56.2333 33.9333 60.7 33.6ZM46.5 63.2C45.1667 62.8667 44.0667 62.8 43.2 63C41.1333 63.4 39.1333 64.5667 37.2 66.5C35.2667 68.5667 33.5667 72.2333 32.1 77.5C31.7667 78.7 31.4 80.1 31 81.7C29.8667 86.2333 29.3 89.6 29.3 91.8C29.3 93.8667 29.7333 95.5 30.6 96.7C32.2 98.8333 34.6 99.3667 37.8 98.3C40.5333 97.3667 43.1667 95.2667 45.7 92L46.4 91.1L51.6 70.1L51.4 69.3C50.4667 66.0333 48.8333 64 46.5 63.2Z" fill="black"/>
<path d="M112.653 33.6C117.986 33.2 120.62 33 120.553 33C121.153 33 121.553 33.2333 121.753 33.7C121.82 33.9667 119.42 43.9 114.553 63.5C109.553 83.3667 107.053 93.5 107.053 93.9C106.786 95.3 106.82 96.4667 107.153 97.4C107.553 98.4667 108.32 98.9333 109.453 98.8C110.253 98.7333 111.086 98.1 111.953 96.9C112.886 95.5 113.853 92.9 114.853 89.1C115.12 87.9667 115.42 87.3333 115.753 87.2C115.953 87.1333 116.586 87.1 117.653 87.1C118.92 87.1 119.62 87.1667 119.753 87.3C120.153 87.5667 120.153 88.3333 119.753 89.6C118.02 95.8 115.786 99.9 113.053 101.9C111.986 102.7 110.92 103.2 109.853 103.4C108.453 103.6 106.953 103.5 105.353 103.1C102.353 102.433 100.22 100.867 98.9531 98.4L98.6531 97.7L98.0531 98.2C92.7865 102.733 87.5865 104.333 82.4531 103C80.9865 102.6 79.6198 102 78.3531 101.2C74.5531 98.5333 72.3865 94.5667 71.8531 89.3C71.6531 86.9 71.8198 84.3 72.3531 81.5C73.3531 77.1667 75.1198 73.2667 77.6531 69.8C81.7198 64.0667 86.7865 60.4 92.8531 58.8C93.9865 58.4667 95.3865 58.3 97.0531 58.3C98.3198 58.3 99.2531 58.3667 99.8531 58.5C101.653 58.9667 103.286 59.9333 104.753 61.4L105.553 62.2L105.653 61.8C105.653 61.9333 106.486 58.6667 108.153 52C109.953 44.8 110.72 41 110.453 40.6C110.053 40 108.353 39.7 105.353 39.7C104.153 39.7 103.453 39.4667 103.253 39C103.186 38.6667 103.32 37.9 103.653 36.7C103.92 35.4333 104.186 34.6667 104.453 34.4C104.653 34.2 104.853 34.1 105.053 34.1C105.653 34.1 108.186 33.9333 112.653 33.6ZM98.4531 63.2C97.1198 62.8667 96.0198 62.8 95.1531 63C93.0865 63.4 91.0865 64.5667 89.1531 66.5C87.2198 68.5667 85.5198 72.2333 84.0531 77.5C83.7198 78.7 83.3531 80.1 82.9531 81.7C81.8198 86.2333 81.2531 89.6 81.2531 91.8C81.2531 93.8667 81.6865 95.5 82.5531 96.7C84.1531 98.8333 86.5531 99.3667 89.7531 98.3C92.4865 97.3667 95.1198 95.2667 97.6531 92L98.3531 91.1L103.553 70.1L103.353 69.3C102.42 66.0333 100.786 64 98.4531 63.2Z" fill="black"/>
</mask>
<g mask="url(#mask0_66_20)">
<path d="M5 114.433H136.347V116.4H5V114.433Z" fill="black"/>
<path d="M5.65347 109.843H137V111.81H5.65347V109.843Z" fill="black"/>
<path d="M5.65347 105.252H137V107.22H5.65347V105.252Z" fill="black"/>
<path d="M5.65347 100.662H137V102.63H5.65347V100.662Z" fill="black"/>
<path d="M5.65347 96.0721H137V98.0393H5.65347V96.0721Z" fill="black"/>
<path d="M5.65347 91.482H137V93.4492H5.65347V91.482Z" fill="black"/>
<path d="M5 86.8918H136.347V88.859H5V86.8918Z" fill="black"/>
<path d="M5 82.3016H136.347V84.2689H5V82.3016Z" fill="black"/>
<path d="M5 77.7115H136.347V79.6787H5V77.7115Z" fill="black"/>
<path d="M5 73.1213H136.347V75.0885H5V73.1213Z" fill="black"/>
<path d="M5 68.5311H136.347V70.4984H5V68.5311Z" fill="black"/>
<path d="M5 63.941H136.347V65.9082H5V63.941Z" fill="black"/>
<path d="M5.65347 59.3508H137V61.318H5.65347V59.3508Z" fill="black"/>
<path d="M5.65347 54.7607H137V56.7279H5.65347V54.7607Z" fill="black"/>
<path d="M5.65347 50.1705H137V52.1377H5.65347V50.1705Z" fill="black"/>
<path d="M5.65347 45.5803H137V47.5475H5.65347V45.5803Z" fill="black"/>
<path d="M5.65347 40.9902H137V42.9574H5.65347V40.9902Z" fill="black"/>
<path d="M5.65347 36.4H137V38.3672H5.65347V36.4Z" fill="black"/>
</g>
</svg>
